<svg width="1458" height="317" viewBox="0 0 1458 317" fill="none" xmlns="http://www.w3.org/2000/svg">
<path d="M728.278 0C730.935 1.13734 738.617 6.51368 741.035 8.50031C757.655 22.1476 763.216 34.3356 765.964 54.7136L776.568 54.8588L776.717 68.2238C773.465 68.1528 770.115 68.1751 766.856 68.1569L766.748 104.52C789.681 111.347 810.715 123.403 828.201 139.74C859.063 168.268 872.852 206.659 874.519 247.945C920.474 247.264 970.836 247.422 1016.8 247.989L1017.13 270.546C1125.76 272.181 1236.54 270.157 1345.45 270.818L1345.63 302.755C1382.37 303.574 1421.01 303.018 1457.9 303.061L1457.85 316.361C1416.15 316.832 1373.84 316.466 1332.11 316.334C1331.88 305.68 1331.8 295.022 1331.88 284.364C1301.23 283.614 1266.99 284.379 1236.12 284.385L1003.92 284.211L1003.85 261.355C957.121 260.399 907.923 261.294 860.895 261.164C862.521 219.367 848.946 176.253 817.242 147.844C797.751 130.38 778.243 122.075 753.405 115.264L753.174 68.1421C744.955 67.977 736.373 68.1462 728.129 68.19C719.588 68.0686 711.039 68.0447 702.5 68.1182L702.211 115.875C675.596 121.661 647.875 138.614 629.644 158.814C604.815 186.323 594.297 224.756 596.169 261.289C550.632 260.059 499.345 261.22 453.437 261.211L453.503 284.299L124.965 284.257L124.983 316.369L0 316.519L0.382882 303.014L111.576 302.901C111.78 292.187 111.884 281.472 111.891 270.757L333.773 270.679C368.757 270.645 405.054 271.173 439.854 270.471L440.3 247.936C486.666 247.014 535.487 247.95 582.065 247.752C582.772 228.711 588.986 201.26 596.986 184.236C616 143.773 648.395 120.069 689.059 104.725C688.969 92.5379 689.094 80.3499 689.436 68.1669L679.678 67.9729L679.846 54.8531L689.932 54.5741C693.19 25.9062 705.154 14.3612 728.278 0Z" fill="#FBFAFA"/>
</svg>
